<svg width="25" height="25" viewBox="0 0 25 25" fill="none" xmlns="http://www.w3.org/2000/svg">
<g clip-path="url(#clip0_2001_236)">
<path d="M11.7434 0.280409C11.6907 0.285208 11.5227 0.302002 11.3715 0.313998C7.88497 0.628293 4.61919 2.50926 2.55078 5.40029C1.39899 7.00775 0.662332 8.83114 0.383985 10.7625C0.285603 11.4367 0.273605 11.6358 0.273605 12.5499C0.273605 13.464 0.285603 13.6631 0.383985 14.3373C1.05106 18.9462 4.33124 22.8185 8.78 24.2532C9.57665 24.5099 10.4165 24.685 11.3715 24.7906C11.7434 24.8314 13.3511 24.8314 13.7231 24.7906C15.3716 24.6083 16.7681 24.2004 18.1454 23.4974C18.3566 23.3895 18.3974 23.3607 18.3686 23.3367C18.3494 23.3223 17.4496 22.1155 16.3698 20.6568L14.4069 18.0057L11.9474 14.3661C10.5941 12.3652 9.48067 10.7289 9.47107 10.7289C9.46148 10.7265 9.45188 12.3436 9.44708 14.3181C9.43988 17.7753 9.43748 17.9145 9.39429 17.9961C9.3319 18.1136 9.28391 18.1616 9.18313 18.2144C9.10634 18.2528 9.03916 18.26 8.67682 18.26H8.2617L8.15132 18.1904C8.07934 18.1448 8.02655 18.0848 7.99055 18.0153L7.94016 17.9073L7.94496 13.0969L7.95216 8.28413L8.02655 8.19056C8.06494 8.14018 8.14652 8.0754 8.20411 8.04421C8.30249 7.99622 8.34089 7.99143 8.75601 7.99143C9.24552 7.99143 9.3271 8.01062 9.45428 8.14977C9.49027 8.18816 10.822 10.1939 12.4153 12.6099C14.0086 15.0259 16.1874 18.3248 17.2576 19.9442L19.2012 22.888L19.2996 22.8233C20.1707 22.257 21.0921 21.4509 21.8216 20.6112C23.3741 18.8286 24.3747 16.6549 24.7106 14.3373C24.809 13.6631 24.821 13.464 24.821 12.5499C24.821 11.6358 24.809 11.4367 24.7106 10.7625C24.0435 6.15364 20.7633 2.28134 16.3146 0.84662C15.5299 0.592305 14.6949 0.417164 13.7591 0.311599C13.5287 0.287607 11.9426 0.261216 11.7434 0.280409ZM16.7681 7.70352C16.8833 7.7611 16.9769 7.87147 17.0105 7.98663C17.0297 8.04901 17.0345 9.38296 17.0297 12.3892L17.0225 16.7029L16.2618 15.5369L15.4987 14.3709V11.2351C15.4987 9.20782 15.5083 8.0682 15.5227 8.01302C15.5611 7.87866 15.6451 7.7731 15.7603 7.71072C15.8587 7.66034 15.8947 7.65554 16.2714 7.65554C16.6265 7.65554 16.6889 7.66034 16.7681 7.70352Z" fill="white"/>
</g>
<defs>
<clipPath id="clip0_2001_236">
<rect width="24.5474" height="24.5474" fill="white" transform="translate(0.273605 0.273804)"/>
</clipPath>
</defs>
</svg>
