<svg width="27" height="24" viewBox="0 0 27 24" fill="none" xmlns="http://www.w3.org/2000/svg">
<path d="M13.485 14.3833C14.8155 14.3833 15.8941 13.3043 15.8941 11.9732C15.8941 10.6422 14.8155 9.56311 13.485 9.56311C12.1546 9.56311 11.076 10.6422 11.076 11.9732C11.076 13.3043 12.1546 14.3833 13.485 14.3833Z" fill="#00D8FF"/>
<path d="M13.4849 17.4944C10.1017 17.4944 7.14555 17.0959 4.93326 16.3374C3.49839 15.8477 2.27947 15.1947 1.41087 14.4506C0.489487 13.6632 0 12.8038 0 11.9733C0 10.3793 1.7468 8.81901 4.67892 7.80119C7.07836 6.96582 10.2072 6.50012 13.4801 6.50012C16.6953 6.50012 19.781 6.95142 22.1661 7.77719C23.5625 8.25729 24.7383 8.88142 25.5733 9.57277C26.4803 10.3313 26.9602 11.1619 26.9602 11.9733C26.9602 13.6296 25.007 15.3052 21.8589 16.347C19.6323 17.0863 16.6569 17.4944 13.4849 17.4944ZM13.4849 7.65236C10.38 7.65236 7.30871 8.10366 5.06283 8.88622C2.36585 9.82722 1.15653 11.1139 1.15653 11.9733C1.15653 12.8663 2.45703 14.273 5.30757 15.2476C7.39989 15.9629 10.2312 16.3422 13.4849 16.3422C16.537 16.3422 19.3827 15.9581 21.499 15.2524C24.4599 14.2682 25.8132 12.8615 25.8132 11.9733C25.8132 11.5172 25.4677 10.9795 24.8391 10.4562C24.1144 9.85123 23.0587 9.29911 21.7966 8.86222C19.5267 8.08445 16.5754 7.65236 13.4849 7.65236Z" fill="#00D8FF"/>
<path d="M8.01911 23.9852C7.52962 23.9852 7.09772 23.8796 6.733 23.6684C5.35572 22.8714 4.87583 20.5765 5.4565 17.5279C5.93159 15.0266 7.09292 12.0883 8.72934 9.25095C10.337 6.46636 12.2661 4.01785 14.1713 2.3615C15.2846 1.3917 16.4124 0.681146 17.4297 0.306667C18.5383 -0.101419 19.4981 -0.101419 20.1987 0.301866C21.6336 1.12764 22.1087 3.66257 21.4368 6.90806C20.9617 9.21254 19.8292 11.9923 18.2455 14.7433C16.5563 17.6719 14.7328 20.034 12.9716 21.5751C11.8294 22.5738 10.6537 23.3035 9.57875 23.6828C9.01728 23.8844 8.4894 23.9852 8.01911 23.9852ZM9.22363 9.53901L9.72271 9.82707C8.17267 12.5156 7.02574 15.401 6.58424 17.7439C6.05156 20.5525 6.56504 22.2425 7.30407 22.6698C7.48643 22.7754 7.72637 22.833 8.01911 22.833C8.97409 22.833 10.4761 22.2281 12.2133 20.711C13.8786 19.2563 15.6206 16.9902 17.2474 14.172C18.7734 11.5266 19.858 8.86687 20.3091 6.68241C20.9377 3.62416 20.3955 1.75177 19.6228 1.30528C19.2293 1.07963 18.5911 1.10844 17.8232 1.3917C16.9354 1.71816 15.9325 2.3567 14.9247 3.23528C13.1155 4.81001 11.268 7.15291 9.72271 9.83187L9.22363 9.53901Z" fill="#00D8FF"/>
<path d="M18.9511 24C17.6458 24 15.9902 23.2126 14.2626 21.7243C12.3334 20.0632 10.3707 17.5906 8.72946 14.7532C7.11704 11.9687 5.9653 9.07365 5.48061 6.59153C5.19748 5.14162 5.14469 3.81174 5.32705 2.74112C5.5286 1.57447 6.00369 0.743899 6.70913 0.335813C8.1392 -0.494761 10.5722 0.359818 13.0485 2.56348C14.8049 4.12381 16.6476 6.49551 18.2361 9.24169C19.9301 12.1703 21.0674 14.9309 21.5185 17.2258C21.8112 18.7141 21.8592 20.0968 21.6529 21.2202C21.4321 22.4157 20.933 23.2654 20.2132 23.6831C19.8533 23.8944 19.4262 24 18.9511 24ZM9.72763 14.1771C11.2825 16.8657 13.2116 19.2998 15.016 20.8505C17.1803 22.7133 18.8983 23.1166 19.6421 22.6845C20.4148 22.238 20.981 20.4088 20.3956 17.4514C19.9637 15.2814 18.8743 12.6408 17.2427 9.82261C15.7118 7.17725 13.9507 4.90637 12.2854 3.42766C9.95318 1.35363 8.06242 0.887929 7.28979 1.33442C6.89629 1.56007 6.60355 2.13139 6.46439 2.93796C6.30602 3.86936 6.35401 5.06001 6.61315 6.37068C7.07385 8.72798 8.17759 11.4982 9.72763 14.1771Z" fill="#00D8FF"/>
</svg>
