<svg width="29" height="25" viewBox="0 0 29 25" fill="none" xmlns="http://www.w3.org/2000/svg">
<path fill-rule="evenodd" clip-rule="evenodd" d="M14.6074 4.55127C11.0775 4.55127 8.87186 6.32729 7.98899 9.87934C9.31278 8.10332 10.857 7.43744 12.6217 7.88118C13.6286 8.1343 14.3486 8.8695 15.1448 9.68346C16.4427 11.0089 17.9449 12.5429 21.2253 12.5429C24.7547 12.5429 26.9609 10.7668 27.8432 7.2153C26.5199 8.99133 24.9757 9.65721 23.211 9.21294C22.2036 8.95982 21.4836 8.22462 20.6874 7.41118C19.3895 6.08468 17.8878 4.55127 14.6074 4.55127ZM7.98899 12.5429C4.45958 12.5429 2.25345 14.3189 1.37109 17.8709C2.69488 16.0949 4.23913 15.429 6.00331 15.8728C7.01068 16.1259 7.73067 16.8611 8.52691 17.675C9.82476 19.0005 11.3265 20.5344 14.6074 20.5344C18.1368 20.5344 20.343 18.7589 21.2253 15.2069C19.9015 16.9829 18.3573 17.6488 16.5926 17.205C15.5857 16.9514 14.8657 16.2162 14.0695 15.4028C12.7716 14.0773 11.2694 12.5429 7.98899 12.5429Z" fill="#38BDF8"/>
</svg>
