<svg width="25" height="25" viewBox="0 0 25 25" fill="none" xmlns="http://www.w3.org/2000/svg">
<g clip-path="url(#clip0_2001_245)">
<path d="M21.139 0.273804H3.95588C1.92231 0.273804 0.273773 1.92234 0.273773 3.95591V21.1391C0.273773 23.1726 1.92231 24.8212 3.95588 24.8212H21.139C23.1726 24.8212 24.8212 23.1726 24.8212 21.1391V3.95591C24.8212 1.92234 23.1726 0.273804 21.139 0.273804Z" fill="#3178C6"/>
<path d="M11.4448 13.89H14.5133V11.9243H5.93127V13.89H8.9997V22.6638H11.4448V13.89ZM15.4721 22.1843C15.8605 22.3857 16.3351 22.5343 16.8625 22.635C17.3899 22.7357 17.9652 22.7836 18.5406 22.7836C19.1159 22.7836 19.6433 22.7309 20.1707 22.6206C20.6981 22.5103 21.1296 22.3282 21.5131 22.0932C21.9015 21.8391 22.2323 21.5179 22.424 21.0864C22.6158 20.6549 22.7644 20.1755 22.7644 19.5522C22.7644 19.1159 22.6973 18.7371 22.5679 18.4015C22.4384 18.0659 22.2514 17.7783 21.9925 17.5385C21.748 17.2844 21.4652 17.0591 21.1296 16.8673C20.7939 16.6755 20.4104 16.4742 19.9789 16.292C19.6625 16.1625 19.4036 16.0379 19.1159 15.9132C18.8666 15.7886 18.6508 15.6639 18.4926 15.5393C18.3152 15.4098 18.181 15.2756 18.0851 15.1365C17.9892 14.9927 17.9413 14.8345 17.9413 14.6571C17.9413 14.4941 17.9839 14.3455 18.0707 14.2112C18.1575 14.077 18.2769 13.9667 18.4303 13.8708C18.5837 13.7749 18.7755 13.703 19.0056 13.6503C19.231 13.5975 19.4803 13.5736 19.7727 13.5736C19.9741 13.5736 20.1851 13.5884 20.396 13.6186C20.6166 13.6488 20.8419 13.6953 21.0672 13.7577C21.2926 13.82 21.5131 13.8967 21.7384 13.9926C21.9494 14.0885 22.146 14.1988 22.3138 14.3234V12.07C21.9494 11.931 21.5467 11.8255 21.1152 11.7584C20.6837 11.6913 20.2042 11.6577 19.6289 11.6577C19.0536 11.6577 18.5262 11.72 17.9988 11.8399C17.4714 11.9598 17.0399 12.1515 16.6564 12.4152C16.268 12.6741 15.9852 12.9906 15.7454 13.4221C15.5201 13.8248 15.4098 14.2851 15.4098 14.8604C15.4098 15.5795 15.616 16.2028 16.0331 16.6823C16.4454 17.2096 17.0879 17.5932 17.9029 17.9767C18.2337 18.111 18.5262 18.2452 18.8139 18.3747C19.1015 18.5041 19.3412 18.6384 19.533 18.7774C19.7392 18.9165 19.9022 19.0699 20.0125 19.2329C20.1323 19.3959 20.1946 19.5877 20.1946 19.8082C20.1946 19.9616 20.1572 20.1055 20.0844 20.2397C20.0115 20.374 19.8974 20.489 19.744 20.5849C19.5905 20.6808 19.4036 20.7575 19.1686 20.815C18.9433 20.8678 18.6892 20.8965 18.3536 20.8965C17.8262 20.8965 17.2988 20.8054 16.8194 20.6233C16.292 20.4411 15.8126 20.1678 15.4721 19.883V22.1843Z" fill="white"/>
</g>
<defs>
<clipPath id="clip0_2001_245">
<rect width="24.5474" height="24.5474" fill="white" transform="translate(0.273773 0.273804)"/>
</clipPath>
</defs>
</svg>
